<svg width="117" height="14" viewBox="0 0 117 14" fill="none" xmlns="http://www.w3.org/2000/svg">
<path d="M0.734375 0.789062H7.25781C8.05469 0.789062 8.7474 0.875 9.33594 1.04688C9.92969 1.21354 10.4219 1.44531 10.8125 1.74219C11.2031 2.03906 11.4922 2.39323 11.6797 2.80469C11.8724 3.21094 11.9688 3.65104 11.9688 4.125C11.9688 4.90104 11.724 5.58073 11.2344 6.16406C11.7969 6.4974 12.2161 6.92969 12.4922 7.46094C12.7682 7.99219 12.9062 8.59635 12.9062 9.27344C12.9062 9.84115 12.8099 10.3542 12.6172 10.8125C12.4297 11.2708 12.1406 11.6641 11.75 11.9922C11.3646 12.3151 10.875 12.5651 10.2812 12.7422C9.69271 12.9141 8.9974 13 8.19531 13H0.734375V0.789062ZM8.21094 5.47656C8.42448 5.47656 8.63281 5.48438 8.83594 5.5C9.1849 5.16667 9.35938 4.78646 9.35938 4.35938C9.35938 3.91667 9.1849 3.57552 8.83594 3.33594C8.49219 3.09115 7.98698 2.96875 7.32031 2.96875H3.21094V5.47656H8.21094ZM8.25781 10.8438C8.92448 10.8438 9.42969 10.7005 9.77344 10.4141C10.1224 10.1276 10.2969 9.72396 10.2969 9.20312C10.2969 8.68229 10.1224 8.27604 9.77344 7.98438C9.42969 7.69271 8.92448 7.54688 8.25781 7.54688H3.21094V10.8438H8.25781ZM14.6409 0.789062H17.1175V7.51562C17.1175 8.06771 17.193 8.5599 17.3441 8.99219C17.4951 9.41927 17.7191 9.78125 18.0159 10.0781C18.318 10.375 18.6904 10.6016 19.1331 10.7578C19.5758 10.9089 20.0915 10.9844 20.68 10.9844C21.2633 10.9844 21.7764 10.9089 22.2191 10.7578C22.667 10.6016 23.0394 10.375 23.3363 10.0781C23.6383 9.78125 23.8649 9.41927 24.0159 8.99219C24.167 8.5599 24.2425 8.06771 24.2425 7.51562V0.789062H26.7191V7.8125C26.7191 8.61458 26.5836 9.34375 26.3128 10C26.042 10.6562 25.6488 11.2188 25.1331 11.6875C24.6175 12.1562 23.9847 12.5182 23.2347 12.7734C22.4899 13.0286 21.6383 13.1562 20.68 13.1562C19.7217 13.1562 18.8675 13.0286 18.1175 12.7734C17.3727 12.5182 16.7425 12.1562 16.2269 11.6875C15.7113 11.2188 15.318 10.6562 15.0472 10C14.7764 9.34375 14.6409 8.61458 14.6409 7.8125V0.789062Z" fill="#000001"/>
<path d="M35.0397 4.32812L36.2116 2.89844H28.8756V0.789062H40.8209L33.985 9.375L32.7663 10.8906H40.4381V13H28.2741L35.0397 4.32812Z" fill="#1348C1"/>
<path d="M42.4619 0.789062H48.9853C49.7822 0.789062 50.4749 0.875 51.0634 1.04688C51.6572 1.21354 52.1494 1.44531 52.54 1.74219C52.9306 2.03906 53.2197 2.39323 53.4072 2.80469C53.5999 3.21094 53.6963 3.65104 53.6963 4.125C53.6963 4.90104 53.4515 5.58073 52.9619 6.16406C53.5244 6.4974 53.9436 6.92969 54.2197 7.46094C54.4957 7.99219 54.6338 8.59635 54.6338 9.27344C54.6338 9.84115 54.5374 10.3542 54.3447 10.8125C54.1572 11.2708 53.8681 11.6641 53.4775 11.9922C53.0921 12.3151 52.6025 12.5651 52.0088 12.7422C51.4202 12.9141 50.7249 13 49.9228 13H42.4619V0.789062ZM49.9384 5.47656C50.152 5.47656 50.3603 5.48438 50.5634 5.5C50.9124 5.16667 51.0869 4.78646 51.0869 4.35938C51.0869 3.91667 50.9124 3.57552 50.5634 3.33594C50.2197 3.09115 49.7145 2.96875 49.0478 2.96875H44.9384V5.47656H49.9384ZM49.9853 10.8438C50.652 10.8438 51.1572 10.7005 51.5009 10.4141C51.8499 10.1276 52.0244 9.72396 52.0244 9.20312C52.0244 8.68229 51.8499 8.27604 51.5009 7.98438C51.1572 7.69271 50.652 7.54688 49.9853 7.54688H44.9384V10.8438H49.9853ZM56.8294 0.789062H63.0403C63.9778 0.789062 64.7903 0.888021 65.4778 1.08594C66.1653 1.27865 66.7356 1.5599 67.1888 1.92969C67.6419 2.29948 67.9778 2.75 68.1966 3.28125C68.4205 3.8125 68.5325 4.41406 68.5325 5.08594C68.5325 5.53906 68.4778 5.97135 68.3684 6.38281C68.2591 6.78906 68.0898 7.16406 67.8606 7.50781C67.6367 7.85156 67.3528 8.15885 67.0091 8.42969C66.6653 8.69531 66.2617 8.91667 65.7981 9.09375L68.4544 13H65.4231L63.1263 9.53125H63.0559L59.3059 9.52344V13H56.8294V0.789062ZM63.1028 7.38281C63.5716 7.38281 63.9804 7.32812 64.3294 7.21875C64.6835 7.10938 64.9778 6.95573 65.2122 6.75781C65.4518 6.5599 65.6289 6.32031 65.7434 6.03906C65.8632 5.7526 65.9231 5.4349 65.9231 5.08594C65.9231 4.40365 65.6888 3.8776 65.22 3.50781C64.7513 3.13281 64.0455 2.94531 63.1028 2.94531H59.3059V7.38281H63.1028ZM70.8375 0.789062H73.3297V13H70.8375V0.789062ZM76.1738 0.789062H80.6503C81.9576 0.789062 83.093 0.929688 84.0566 1.21094C85.0201 1.49219 85.817 1.89583 86.4472 2.42188C87.0826 2.94271 87.554 3.57812 87.8613 4.32812C88.1738 5.07292 88.33 5.91146 88.33 6.84375C88.33 7.72917 88.1764 8.54948 87.8691 9.30469C87.5618 10.0547 87.093 10.7057 86.4628 11.2578C85.8326 11.8047 85.0357 12.2344 84.0722 12.5469C83.1086 12.8542 81.9732 13.0078 80.6659 13.0078L76.1738 13V0.789062ZM81.2597 10.8594C81.9993 10.8594 82.6477 10.7656 83.205 10.5781C83.7623 10.3854 84.2258 10.1146 84.5956 9.76562C84.9706 9.41667 85.2519 8.99479 85.4394 8.5C85.6269 8.00521 85.7206 7.45312 85.7206 6.84375C85.7206 6.24479 85.6269 5.70573 85.4394 5.22656C85.2519 4.74219 84.9706 4.33333 84.5956 4C84.2258 3.66146 83.7623 3.40104 83.205 3.21875C82.6477 3.03646 81.9993 2.94531 81.2597 2.94531H78.6503V10.8594H81.2597ZM89.6584 6.78125C89.6584 5.92188 89.8199 5.11979 90.1428 4.375C90.4657 3.625 90.9371 2.97396 91.5569 2.42188C92.1767 1.86979 92.9371 1.4349 93.8381 1.11719C94.7444 0.799479 95.7808 0.640625 96.9475 0.640625C97.3694 0.640625 97.7913 0.664062 98.2131 0.710938C98.6402 0.752604 99.0595 0.820312 99.4709 0.914062C99.8876 1.00781 100.291 1.1276 100.682 1.27344C101.078 1.41406 101.453 1.58333 101.807 1.78125L100.666 3.65625C100.453 3.53125 100.211 3.41927 99.9397 3.32031C99.6689 3.21615 99.3772 3.13021 99.0647 3.0625C98.7574 2.98958 98.4371 2.9349 98.1038 2.89844C97.7756 2.86198 97.4449 2.84375 97.1116 2.84375C96.3407 2.84375 95.6532 2.94271 95.0491 3.14062C94.4449 3.33333 93.9345 3.60677 93.5178 3.96094C93.1011 4.3099 92.7834 4.72917 92.5647 5.21875C92.3459 5.70833 92.2366 6.24479 92.2366 6.82812C92.2366 7.43229 92.3511 7.98698 92.5803 8.49219C92.8095 8.9974 93.135 9.43229 93.5569 9.79688C93.9788 10.1615 94.4892 10.4479 95.0881 10.6562C95.6871 10.8594 96.3564 10.9609 97.0959 10.9609C97.6845 10.9609 98.2235 10.8958 98.7131 10.7656C99.2027 10.6302 99.6298 10.4401 99.9944 10.1953C100.359 9.95052 100.656 9.65625 100.885 9.3125C101.114 8.96354 101.265 8.57292 101.338 8.14062H97.0725V6.10156H103.565V6.10938L103.573 6.10156C103.703 6.72656 103.742 7.33594 103.69 7.92969C103.643 8.51823 103.507 9.07552 103.283 9.60156C103.065 10.1224 102.763 10.6016 102.377 11.0391C101.992 11.4766 101.531 11.8542 100.994 12.1719C100.458 12.4844 99.8485 12.7292 99.1663 12.9062C98.484 13.0781 97.7366 13.1641 96.9241 13.1641C95.7886 13.1641 94.7704 12.9974 93.8694 12.6641C92.9735 12.3307 92.2131 11.875 91.5881 11.2969C90.9631 10.7188 90.484 10.0417 90.1506 9.26562C89.8225 8.48958 89.6584 7.66146 89.6584 6.78125ZM106.174 0.789062H116.573V2.96094H108.651V5.39844H115.667V7.4375H108.651V10.8359H116.737V13H106.174V0.789062Z" fill="#030D24"/>
</svg>
